<svg version="1.1" id="Слой_1" xmlns="http://www.w3.org/2000/svg" x="0" y="0" viewBox="0 0 212.5 28.4" xml:space="preserve"><path d="M36 6.9h2.6L46 24h-3.5l-1.6-4h-7.4L32 23.9h-3.4l7.4-17zm3.8 10.5l-2.6-6.9-2.7 6.9h5.3zm16.1 6.5h2.6l6.9-17.1h-3.3l-4.8 12.9-4.6-12.8h-3.5l6.7 17zm20.4-17h2.6L86.2 24h-3.5l-1.5-4h-7.4l-1.5 3.9h-3.4l7.4-17zm3.8 10.5l-2.6-6.9-2.7 6.9h5.3zm12.8 6.5h10.3v-2.7H96V6.9h-3v17zm22.9-17h2.6l7.3 17.1h-3.5l-1.6-3.9h-7.4l-1.5 3.9h-3.4l7.5-17.1zm3.8 10.5l-2.6-6.9-2.7 6.9h5.3zm12.9 6.5h3V10.8l8.4 13.1h3.9v-17h-3v12.7l-8.3-12.7h-4v17zm38-14.8c-.9-1-1.8-1.7-2.8-2.1-1-.4-2-.6-3.2-.6-1.3 0-2.5.2-3.6.7-1.1.4-2 1-2.8 1.8-.8.8-1.4 1.7-1.9 2.9-.5 1.1-.7 2.3-.7 3.7 0 1.4.2 2.5.7 3.6.5 1.1 1.1 2 1.9 2.8.8.8 1.7 1.4 2.8 1.8 1.1.4 2.3.6 3.6.6 1.3 0 2.4-.2 3.5-.7 1.1-.5 2-1.3 2.8-2.3l-2.5-1.8c-.6.7-1.2 1.3-1.8 1.6-.6.3-1.3.5-2 .5-.9 0-1.7-.2-2.4-.5s-1.3-.8-1.8-1.3c-.5-.6-.9-1.2-1.2-2-.3-.8-.4-1.6-.4-2.5 0-.9.1-1.6.4-2.4.3-.7.7-1.4 1.2-1.9.5-.6 1.1-1 1.8-1.3.7-.3 1.5-.5 2.4-.5.6 0 1.2.1 1.8.3.6.2 1.2.7 1.8 1.3l2.4-1.7zm7.3 14.8h3v-7.5h8v7.5h3v-17h-3v6.8h-8V6.9h-3v17zm22.7 0h11.7v-2.7h-8.7v-4.6h7.8v-2.7h-7.8V9.6h8.3V6.9h-11.3v17z" fill="#8e8e8e"/><path d="M14 1.5C7 1.5 1.3 7.2 1.3 14.2S7 26.9 14 26.9s12.7-5.7 12.7-12.7S21 1.5 14 1.5zm-1.1 16.3c-.3.5-.4.8-.6.9-.2.2-.5.4-.8.4-.3.1-.5.1-1.1.1H7.9c-.5 0-.8 0-.9-.1-.2-.1-.3-.3-.3-.5s.1-.4.4-.9L13.2 7c.3-.5.4-.7.6-.8.2-.1.4-.1.6 0 .2.1.3.3.6.8l1.3 2.2c.3.5.4.7.5 1 .1.3.1.6 0 .9-.1.3-.2.5-.5 1l-3.4 5.7zm8.2 1.4c-.2.1-.4.1-.9.1h-3.5c-.5 0-.8 0-.9-.1-.2-.1-.3-.3-.3-.5s.1-.4.4-.9l1.8-3c.3-.4.4-.7.6-.8.2-.1.4-.1.6 0 .2.1.3.3.5.7l1.8 3c.2.4.4.6.4.8-.3.4-.4.6-.5.7z" fill-rule="evenodd" clip-rule="evenodd" fill="#8e8e8e"/></svg>