<?xml version="1.0" encoding="utf-8"?>
<!-- Generator: Adobe Illustrator 25.0.0, SVG Export Plug-In . SVG Version: 6.00 Build 0)  -->
<svg version="1.1" id="Слой_1" xmlns="http://www.w3.org/2000/svg" xmlns:xlink="http://www.w3.org/1999/xlink" x="0px" y="0px"
	 viewBox="0 0 212.5 28.4" style="enable-background:new 0 0 212.5 28.4;" xml:space="preserve">
<style type="text/css">
	.st0{fill:#8E8E8E;}
	.st1{fill-rule:evenodd;clip-rule:evenodd;fill:#8E8E8E;}
</style>
<path class="st0" d="M36,6.9h2.6l7.4,17.1h-3.5L40.9,20h-7.4l-1.5,3.9h-3.4L36,6.9z M39.8,17.4l-2.6-6.9l-2.7,6.9H39.8L39.8,17.4z
	 M55.9,23.9h2.6l6.9-17.1h-3.3l-4.8,12.9L52.7,6.9h-3.5L55.9,23.9L55.9,23.9z M76.3,6.9h2.6l7.3,17.1h-3.5L81.2,20h-7.4l-1.5,3.9
	h-3.4L76.3,6.9z M80.1,17.4l-2.6-6.9l-2.7,6.9H80.1L80.1,17.4z M92.9,23.9h10.3v-2.7H96V6.9h-3V23.9z M115.8,6.9h2.6l7.3,17.1h-3.5
	l-1.6-3.9h-7.4l-1.5,3.9h-3.4L115.8,6.9z M119.6,17.4l-2.6-6.9l-2.7,6.9H119.6L119.6,17.4z M132.5,23.9h3V10.8h0l8.4,13.1h3.9V6.9
	h-3v12.7h0l-8.3-12.7h-4L132.5,23.9L132.5,23.9z M170.5,9.1c-0.9-1-1.8-1.7-2.8-2.1c-1-0.4-2-0.6-3.2-0.6c-1.3,0-2.5,0.2-3.6,0.7
	c-1.1,0.4-2,1-2.8,1.8c-0.8,0.8-1.4,1.7-1.9,2.9c-0.5,1.1-0.7,2.3-0.7,3.7c0,1.4,0.2,2.5,0.7,3.6c0.5,1.1,1.1,2,1.9,2.8
	c0.8,0.8,1.7,1.4,2.8,1.8c1.1,0.4,2.3,0.6,3.6,0.6c1.3,0,2.4-0.2,3.5-0.7c1.1-0.5,2-1.3,2.8-2.3l-2.5-1.8c-0.6,0.7-1.2,1.3-1.8,1.6
	c-0.6,0.3-1.3,0.5-2,0.5c-0.9,0-1.7-0.2-2.4-0.5c-0.7-0.3-1.3-0.8-1.8-1.3c-0.5-0.6-0.9-1.2-1.2-2c-0.3-0.8-0.4-1.6-0.4-2.5
	c0-0.9,0.1-1.6,0.4-2.4c0.3-0.7,0.7-1.4,1.2-1.9c0.5-0.6,1.1-1,1.8-1.3c0.7-0.3,1.5-0.5,2.4-0.5c0.6,0,1.2,0.1,1.8,0.3
	c0.6,0.2,1.2,0.7,1.8,1.3L170.5,9.1L170.5,9.1z M177.8,23.9h3v-7.5h8v7.5h3V6.9h-3v6.8h-8V6.9h-3V23.9L177.8,23.9z M200.5,23.9h11.7
	v-2.7h-8.7v-4.6h7.8v-2.7h-7.8V9.6h8.3V6.9h-11.3V23.9L200.5,23.9z"/>
<path class="st1" d="M14,1.5C7,1.5,1.3,7.2,1.3,14.2S7,26.9,14,26.9s12.7-5.7,12.7-12.7S21,1.5,14,1.5z M12.9,17.8L12.9,17.8
	c-0.3,0.5-0.4,0.8-0.6,0.9c-0.2,0.2-0.5,0.4-0.8,0.4c-0.3,0.1-0.5,0.1-1.1,0.1H7.9c-0.5,0-0.8,0-0.9-0.1c-0.2-0.1-0.3-0.3-0.3-0.5
	c0-0.2,0.1-0.4,0.4-0.9l6.1-10.7c0.3-0.5,0.4-0.7,0.6-0.8c0.2-0.1,0.4-0.1,0.6,0c0.2,0.1,0.3,0.3,0.6,0.8l1.3,2.2l0,0
	c0.3,0.5,0.4,0.7,0.5,1c0.1,0.3,0.1,0.6,0,0.9c-0.1,0.3-0.2,0.5-0.5,1L12.9,17.8L12.9,17.8z M21.1,19.2c-0.2,0.1-0.4,0.1-0.9,0.1
	h-3.5c-0.5,0-0.8,0-0.9-0.1c-0.2-0.1-0.3-0.3-0.3-0.5c0-0.2,0.1-0.4,0.4-0.9l0,0l1.8-3c0.3-0.4,0.4-0.7,0.6-0.8
	c0.2-0.1,0.4-0.1,0.6,0c0.2,0.1,0.3,0.3,0.5,0.7l0,0l1.8,3c0,0,0,0,0,0c0.2,0.4,0.4,0.6,0.4,0.8C21.3,18.9,21.2,19.1,21.1,19.2
	L21.1,19.2z"/>
</svg>
